<?xml version="1.0" encoding="UTF-8" standalone="no"?>
<!-- Created with Inkscape (http://www.inkscape.org/) -->

<svg
   width="91"
   height="91"
   viewBox="55 101 91 91"
   version="1.1"
   id="svg1"
   xml:space="preserve"
   inkscape:version="1.4.2 (f4327f4, 2025-05-13)"
   sodipodi:docname="sehorbas logo.svg"
   xmlns:inkscape="http://www.inkscape.org/namespaces/inkscape"
   xmlns:sodipodi="http://sodipodi.sourceforge.net/DTD/sodipodi-0.dtd"
   xmlns:xlink="http://www.w3.org/1999/xlink"
   xmlns="http://www.w3.org/2000/svg"
   xmlns:svg="http://www.w3.org/2000/svg"><sodipodi:namedview
     id="namedview1"
     pagecolor="#ffffff"
     bordercolor="#000000"
     borderopacity="0.25"
     inkscape:showpageshadow="2"
     inkscape:pageopacity="0.0"
     inkscape:pagecheckerboard="0"
     inkscape:deskcolor="#d1d1d1"
     inkscape:document-units="mm"
     inkscape:zoom="0.44097222"
     inkscape:cx="-263.05512"
     inkscape:cy="502.29921"
     inkscape:window-width="1366"
     inkscape:window-height="697"
     inkscape:window-x="-8"
     inkscape:window-y="-8"
     inkscape:window-maximized="1"
     inkscape:current-layer="layer1" /><defs
     id="defs1" /><g
     inkscape:label="Camada 1"
     inkscape:groupmode="layer"
     id="layer1"><g
       id="g1"
       transform="translate(3.3941125,43.274935)"><path
         style="fill:#039dd9;fill-opacity:1;stroke-width:0.297079"
         d="m 95.831974,103.9559 -19.855595,25.13164 13.587717,7.1377 -16.801055,-1.48973 c 0,0 0.794926,-7.81162 -7.425286,-7.31644 l -2.863633,-16.55251 7.560608,12.79451 z"
         id="path3-7" /><ellipse
         style="fill:#039dd9;fill-opacity:1;stroke-width:0.307152"
         id="path4-9"
         cx="-135.19475"
         cy="62.650517"
         rx="5.5093565"
         ry="5.6861444"
         transform="matrix(-0.02469317,-0.99969508,0.9997074,-0.02418904,0,0)" /><path
         style="fill:#039dd9;fill-opacity:1;stroke-width:0.297079"
         d="m 98.495547,101.33903 21.865283,-23.440681 -12.95256,-8.213387 16.62174,2.844354 c 0,0 -1.43761,7.721129 6.79599,7.89283 l 1.48662,16.728822 -6.47832,-13.363503 z"
         id="path3-2" /><ellipse
         style="fill:#039dd9;fill-opacity:1;stroke-width:0.307152"
         id="path4-3"
         cx="65.861664"
         cy="-134.7473"
         rx="5.5095115"
         ry="5.6859875"
         transform="matrix(-0.05797471,0.99831805,-0.9983859,-0.05679429,0,0)" /><path
         style="fill:#039dd9;fill-opacity:1;stroke-width:0.297079"
         d="m 99.854121,104.6556 24.857259,20.31082 7.56927,-13.25436 -1.94986,16.58326 c 0,0 -7.86881,-0.99349 -7.5865,7.15259 l -16.79421,2.39461 13.12303,-7.1413 z"
         id="path3-3" /><ellipse
         style="fill:#039dd9;fill-opacity:1;stroke-width:0.307152"
         id="path4-8"
         cx="-129.82042"
         cy="-134.48549"
         rx="5.5664697"
         ry="5.6278019"
         transform="matrix(-0.99999792,-0.00203869,0.0020812,-0.99999783,0,0)" /><path
         style="fill:#e8cc39;fill-opacity:1;stroke-width:0.297079"
         d="m 97.590534,105.94984 -2.39418,25.76941 -13.527121,-1.89568 12.030764,6.69412 c 0,0 4.489082,-4.20605 8.379633,0 l 11.9709,-6.93108 -12.56945,2.13264 z"
         id="path1" /><ellipse
         style="fill:#e8cc39;fill-opacity:1;stroke-width:0.317434"
         id="path2"
         cx="98.039444"
         cy="139.65742"
         rx="4.3394527"
         ry="4.1468015" /><path
         style="fill:#e8cc39;fill-opacity:1;stroke-width:0.297079"
         d="M 94.631024,103.43542 68.720782,99.964011 71.213898,86.669273 63.941134,98.278799 c 0,0 4.053455,4.619111 -0.358993,8.285981 l 6.483694,12.13407 -1.614287,-12.52035 z"
         id="path1-5"
         inkscape:transform-center-x="5.2163149" /><ellipse
         style="fill:#e8cc39;fill-opacity:1;stroke-width:0.317435"
         id="path2-5"
         cx="99.774193"
         cy="-64.962959"
         rx="4.2949839"
         ry="4.1897378"
         transform="matrix(-0.04328463,0.99906278,-0.99910063,-0.04240204,0,0)"
         inkscape:transform-center-x="21.626277"
         inkscape:transform-center-y="-0.22274859" /><path
         style="fill:#e8cc39;fill-opacity:1;stroke-width:0.297079"
         d="m 100.0454,104.50837 25.97828,2.93139 -2.21009,13.34369 7.02448,-11.75833 c 0,0 -4.15069,-4.53373 0.18288,-8.29164 l -6.74008,-11.996419 1.87996,12.483979 z"
         id="path1-52" /><ellipse
         style="fill:#e8cc39;fill-opacity:1;stroke-width:0.317434"
         id="path2-7"
         cx="-101.87885"
         cy="136.38245"
         rx="4.2949233"
         ry="4.1897955"
         transform="matrix(0.02204877,-0.9997569,0.99976672,0.02159858,0,0)" /><path
         style="fill:#e8cc39;fill-opacity:1;stroke-width:0.297079"
         d="m 97.080677,100.67643 2.519413,-25.75772 13.51775,1.96006 -11.99809,-6.751315 c 0,0 -4.509474,4.184613 -8.379538,-0.03988 l -12.004456,6.873999 12.579672,-2.072769 z"
         id="path1-57" /><ellipse
         style="fill:#e8cc39;fill-opacity:1;stroke-width:0.317434"
         id="path2-6"
         cx="-97.119995"
         cy="-66.505447"
         rx="4.3394513"
         ry="4.1468029"
         transform="matrix(-0.99998867,-0.00476124,0.00486053,-0.99998819,0,0)" /><path
         style="fill:#039dd9;fill-opacity:1;stroke-width:0.297079"
         d="M 95.555483,101.86228 70.656006,81.602187 63.114336,94.871948 65.029673,78.284744 c 0,0 7.870868,0.977456 7.571602,-7.168038 l 16.789193,-2.428848 -13.108141,7.168049 z"
         id="path3" /><ellipse
         style="fill:#039dd9;fill-opacity:1;stroke-width:0.307152"
         id="path4"
         cx="66.286636"
         cy="72.064537"
         rx="5.5664701"
         ry="5.6278019" /><text
         xml:space="preserve"
         style="font-size:3.175px;text-align:start;writing-mode:lr-tb;direction:ltr;text-anchor:start;fill:#039dd9;fill-opacity:1;stroke-width:0.264583"
         x="96.732208"
         y="49.638897"
         id="text4"><tspan
           sodipodi:role="line"
           id="tspan4"
           style="stroke-width:0.264583"
           x="96.732208"
           y="49.638897" /></text><circle
         style="fill:none;fill-opacity:1;stroke-width:0.264583"
         id="path6"
         cx="-148.6011"
         cy="15.881312"
         r="44.100002"
         transform="rotate(-126.80197)" /><text
         xml:space="preserve"
         style="font-style:normal;font-variant:normal;font-weight:bold;font-stretch:normal;font-size:10.5393px;font-family:sans-serif;-inkscape-font-specification:'sans-serif Bold';text-align:start;writing-mode:lr-tb;direction:ltr;text-anchor:start;fill:#e8cc39;fill-opacity:1;stroke-width:0.878276"
         id="text6"
         transform="matrix(1.1510378,0.03974393,-0.04751248,0.96283649,-14.90733,-10.852277)"><textPath
           xlink:href="#path6"
           id="textPath6"><tspan
             id="tspan6"
             style="stroke-width:0.878276">SEHORBAS</tspan></textPath></text><text
         xml:space="preserve"
         style="font-style:normal;font-variant:normal;font-weight:bold;font-stretch:normal;font-size:3.175px;font-family:sans-serif;-inkscape-font-specification:'sans-serif Bold';text-align:start;writing-mode:lr-tb;direction:ltr;text-anchor:start;fill:none;fill-opacity:1;stroke-width:0.264583"
         x="73.821945"
         y="43.274933"
         id="text7"><tspan
           sodipodi:role="line"
           id="tspan7"
           style="stroke-width:0.264583"
           x="73.821945"
           y="43.274933" /></text><text
         xml:space="preserve"
         style="font-style:normal;font-variant:normal;font-weight:bold;font-stretch:normal;font-size:6.35px;font-family:sans-serif;-inkscape-font-specification:'sans-serif Bold';text-align:start;writing-mode:lr-tb;direction:ltr;text-anchor:start;fill:none;fill-opacity:1;stroke-width:0.264583"
         x="95.459419"
         y="41.047546"
         id="text8"><tspan
           sodipodi:role="line"
           id="tspan8"
           style="stroke-width:0.264583"
           x="95.459419"
           y="41.047546" /></text><text
         xml:space="preserve"
         style="font-style:normal;font-variant:normal;font-weight:bold;font-stretch:normal;font-size:7.76616px;font-family:sans-serif;-inkscape-font-specification:'sans-serif Bold';text-align:start;writing-mode:lr-tb;direction:ltr;text-anchor:start;fill:#039dd9;fill-opacity:1;stroke-width:0.264583"
         id="text9"
         transform="matrix(-0.5973834,-0.7574675,0.7983778,-0.65946742,72.259853,243.08018)"><textPath
           xlink:href="#path9"
           id="textPath9"
           style="font-size:7.76616px">SINDICATO DOS EMPREGADOS EM HOTEIS, RESTAURANTES, BARES E SIMILARES DE MGÁ E REGIÃO.</textPath></text><ellipse
         style="fill:none;fill-opacity:1;stroke-width:0.264583"
         id="path9"
         cx="98.853523"
         cy="104.79322"
         rx="61.518288"
         ry="58.124176" /></g></g></svg>
